HIERARCHY
ROOT Hips
{
	OFFSET -0.066283 88.859909 3.106752
	CHANNELS 6 Xposition Yposition Zposition Zrotation Yrotation Xrotation 
	JOINT Spine
	{
		OFFSET -0.000000 8.814246 -2.080107
		CHANNELS 3 Zrotation Yrotation Xrotation
		JOINT Spine1
		{
			OFFSET -0.000000 8.844141 0.000000
			CHANNELS 3 Zrotation Yrotation Xrotation
			JOINT Spine2
			{
				OFFSET 0.000000 11.682268 0.000000
				CHANNELS 3 Zrotation Yrotation Xrotation
				JOINT Spine3
				{
					OFFSET -0.000000 11.746700 0.000000
					CHANNELS 3 Zrotation Yrotation Xrotation
					JOINT Neck
					{
						OFFSET -0.000000 17.658264 0.000000
						CHANNELS 3 Zrotation Yrotation Xrotation
						JOINT Neck1
						{
							OFFSET 0.000000 5.101515 -0.000000
							CHANNELS 3 Zrotation Yrotation Xrotation
							JOINT Head
							{
								OFFSET -0.000000 5.101515 -0.000000
								CHANNELS 3 Zrotation Yrotation Xrotation
								JOINT HeadEnd
								{
									OFFSET 0.000000 11.655085 -0.000000
									CHANNELS 3 Zrotation Yrotation Xrotation
									End Site
									{
										OFFSET 0.000000 0.000000 0.000000
									}
								}
							}
						}
					}
					JOINT RightShoulder
					{
						OFFSET -2.625389 11.175210 -0.000000
						CHANNELS 3 Zrotation Yrotation Xrotation
						JOINT RightArm
						{
							OFFSET 0.000000 10.434715 -0.000000
							CHANNELS 3 Zrotation Yrotation Xrotation
							JOINT RightForeArm
							{
								OFFSET -0.000000 29.628420 0.000000
								CHANNELS 3 Zrotation Yrotation Xrotation
								JOINT RightHand
								{
									OFFSET -0.000000 22.857611 0.000000
									CHANNELS 3 Zrotation Yrotation Xrotation
									JOINT RightHandThumb1
									{
										OFFSET -2.867323 3.959563 2.944291
										CHANNELS 3 Zrotation Yrotation Xrotation
										JOINT RightHandThumb2
										{
											OFFSET -0.000000 3.350399 0.000000
											CHANNELS 3 Zrotation Yrotation Xrotation
											JOINT RightHandThumb3
											{
												OFFSET -0.000000 3.756509 -0.000000
												CHANNELS 3 Zrotation Yrotation Xrotation
												JOINT RightHandThumb4
												{
													OFFSET -0.000000 3.147345 0.000000
													CHANNELS 3 Zrotation Yrotation Xrotation
													End Site
													{
														OFFSET 0.000000 0.000000 0.000000
													}
												}
											}
										}
									}
									JOINT RightHandIndex1
									{
										OFFSET -0.086752 10.030893 2.345280
										CHANNELS 3 Zrotation Yrotation Xrotation
										JOINT RightHandIndex2
										{
											OFFSET 0.000000 4.061090 -0.000000
											CHANNELS 3 Zrotation Yrotation Xrotation
											JOINT RightHandIndex3
											{
												OFFSET 0.000000 3.248873 -0.000000
												CHANNELS 3 Zrotation Yrotation Xrotation
												JOINT RightHandIndex4
												{
													OFFSET 0.000000 2.639709 0.000000
													CHANNELS 3 Zrotation Yrotation Xrotation
													End Site
													{
														OFFSET 0.000000 0.000000 0.000000
													}
												}
											}
										}
									}
									JOINT RightHandMiddle1
									{
										OFFSET 0.104102 9.502952 0.006768
										CHANNELS 3 Zrotation Yrotation Xrotation
										JOINT RightHandMiddle2
										{
											OFFSET 0.000000 4.568727 0.000000
											CHANNELS 3 Zrotation Yrotation Xrotation
											JOINT RightHandMiddle3
											{
												OFFSET 0.000000 3.654981 -0.000000
												CHANNELS 3 Zrotation Yrotation Xrotation
												JOINT RightHandMiddle4
												{
													OFFSET -0.000000 2.741236 0.000000
													CHANNELS 3 Zrotation Yrotation Xrotation
													End Site
													{
														OFFSET 0.000000 0.000000 0.000000
													}
												}
											}
										}
									}
									JOINT RightHandRing1
									{
										OFFSET 0.086752 8.921708 -2.267442
										CHANNELS 3 Zrotation Yrotation Xrotation
										JOINT RightHandRing2
										{
											OFFSET 0.000000 4.061090 -0.000000
											CHANNELS 3 Zrotation Yrotation Xrotation
											JOINT RightHandRing3
											{
												OFFSET -0.000000 3.654981 0.000000
												CHANNELS 3 Zrotation Yrotation Xrotation
												JOINT RightHandRing4
												{
													OFFSET -0.000000 2.741236 0.000000
													CHANNELS 3 Zrotation Yrotation Xrotation
													End Site
													{
														OFFSET 0.000000 0.000000 0.000000
													}
												}
											}
										}
									}
									JOINT RightHandPinky1
									{
										OFFSET -0.173504 7.976997 -4.467199
										CHANNELS 3 Zrotation Yrotation Xrotation
										JOINT RightHandPinky2
										{
											OFFSET -0.000000 3.350399 0.000000
											CHANNELS 3 Zrotation Yrotation Xrotation
											JOINT RightHandPinky3
											{
												OFFSET 0.000000 2.842763 0.000000
												CHANNELS 3 Zrotation Yrotation Xrotation
												JOINT RightHandPinky4
												{
													OFFSET 0.000000 2.639709 0.000000
													CHANNELS 3 Zrotation Yrotation Xrotation
													End Site
													{
														OFFSET 0.000000 0.000000 0.000000
													}
												}
											}
										}
									}
									JOINT RightForeArmEnd
									{
										OFFSET 0.000000 0.000000 0.000000
										CHANNELS 3 Zrotation Yrotation Xrotation
										End Site
										{
											OFFSET 0.000000 0.000000 0.000000
										}
									}
								}
								JOINT RightArmEnd
								{
									OFFSET 0.000000 0.000000 0.000000
									CHANNELS 3 Zrotation Yrotation Xrotation
									End Site
									{
										OFFSET 0.000000 0.000000 0.000000
									}
								}
							}
						}
					}
					JOINT LeftShoulder
					{
						OFFSET 2.625389 11.175210 0.000000
						CHANNELS 3 Zrotation Yrotation Xrotation
						JOINT LeftArm
						{
							OFFSET -0.000000 10.813635 -0.000000
							CHANNELS 3 Zrotation Yrotation Xrotation
							JOINT LeftForeArm
							{
								OFFSET -0.000000 28.724781 -0.000000
								CHANNELS 3 Zrotation Yrotation Xrotation
								JOINT LeftHand
								{
									OFFSET 0.644384 25.716167 -0.328871
									CHANNELS 3 Zrotation Yrotation Xrotation
									JOINT LeftHandThumb1
									{
										OFFSET 2.867323 3.959563 2.944291
										CHANNELS 3 Zrotation Yrotation Xrotation
										JOINT LeftHandThumb2
										{
											OFFSET 0.000000 3.350399 0.000000
											CHANNELS 3 Zrotation Yrotation Xrotation
											JOINT LeftHandThumb3
											{
												OFFSET -0.000000 3.756509 -0.000000
												CHANNELS 3 Zrotation Yrotation Xrotation
												JOINT LeftHandThumb4
												{
													OFFSET 0.000000 3.100000 0.000000
													CHANNELS 3 Zrotation Yrotation Xrotation
													End Site
													{
														OFFSET 0.000000 0.000000 0.000000
													}
												}
											}
										}
									}
									JOINT LeftHandIndex1
									{
										OFFSET 0.086752 10.030893 2.345280
										CHANNELS 3 Zrotation Yrotation Xrotation
										JOINT LeftHandIndex2
										{
											OFFSET 0.000000 4.061090 0.000000
											CHANNELS 3 Zrotation Yrotation Xrotation
											JOINT LeftHandIndex3
											{
												OFFSET -0.000000 3.248873 -0.000000
												CHANNELS 3 Zrotation Yrotation Xrotation
												JOINT LeftHandIndex4
												{
													OFFSET 0.000000 2.639709 0.000000
													CHANNELS 3 Zrotation Yrotation Xrotation
													End Site
													{
														OFFSET 0.000000 0.000000 0.000000
													}
												}
											}
										}
									}
									JOINT LeftHandMiddle1
									{
										OFFSET -0.104102 9.502952 0.006768
										CHANNELS 3 Zrotation Yrotation Xrotation
										JOINT LeftHandMiddle2
										{
											OFFSET -0.000000 4.568727 -0.000000
											CHANNELS 3 Zrotation Yrotation Xrotation
											JOINT LeftHandMiddle3
											{
												OFFSET -0.000000 3.654981 -0.000000
												CHANNELS 3 Zrotation Yrotation Xrotation
												JOINT LeftHandMiddle4
												{
													OFFSET 0.000000 2.741236 0.000000
													CHANNELS 3 Zrotation Yrotation Xrotation
													End Site
													{
														OFFSET 0.000000 0.000000 0.000000
													}
												}
											}
										}
									}
									JOINT LeftHandRing1
									{
										OFFSET -0.086752 8.921708 -2.267442
										CHANNELS 3 Zrotation Yrotation Xrotation
										JOINT LeftHandRing2
										{
											OFFSET 0.000000 4.061090 0.000000
											CHANNELS 3 Zrotation Yrotation Xrotation
											JOINT LeftHandRing3
											{
												OFFSET 0.000000 3.654981 -0.000000
												CHANNELS 3 Zrotation Yrotation Xrotation
												JOINT LeftHandRing4
												{
													OFFSET -0.000000 2.741236 -0.000000
													CHANNELS 3 Zrotation Yrotation Xrotation
													End Site
													{
														OFFSET 0.000000 0.000000 0.000000
													}
												}
											}
										}
									}
									JOINT LeftHandPinky1
									{
										OFFSET 0.173504 7.976997 -4.467199
										CHANNELS 3 Zrotation Yrotation Xrotation
										JOINT LeftHandPinky2
										{
											OFFSET -0.000000 3.350399 -0.000000
											CHANNELS 3 Zrotation Yrotation Xrotation
											JOINT LeftHandPinky3
											{
												OFFSET 0.000000 2.842763 -0.000000
												CHANNELS 3 Zrotation Yrotation Xrotation
												JOINT LeftHandPinky4
												{
													OFFSET -0.000000 2.639709 -0.000000
													CHANNELS 3 Zrotation Yrotation Xrotation
													End Site
													{
														OFFSET 0.000000 0.000000 0.000000
													}
												}
											}
										}
									}
									JOINT LeftForeArmEnd
									{
										OFFSET 0.000000 0.000000 0.000000
										CHANNELS 3 Zrotation Yrotation Xrotation
										End Site
										{
											OFFSET 0.000000 0.000000 0.000000
										}
									}
								}
								JOINT LeftArmEnd
								{
									OFFSET 0.000000 0.000000 0.000000
									CHANNELS 3 Zrotation Yrotation Xrotation
									End Site
									{
										OFFSET 0.000000 0.000000 0.000000
									}
								}
							}
						}
					}
				}
			}
		}
	}
	JOINT RightUpLeg
	{
		OFFSET -11.289943 -0.000000 0.000000
		CHANNELS 3 Zrotation Yrotation Xrotation
		JOINT RightLeg
		{
			OFFSET 0.000000 -38.200325 -0.000000
			CHANNELS 3 Zrotation Yrotation Xrotation
			JOINT RightFoot
			{
				OFFSET -0.000000 -39.900856 0.000000
				CHANNELS 3 Zrotation Yrotation Xrotation
				JOINT RightToeBase
				{
					OFFSET 0.000000 0.000000 15.261641
					CHANNELS 3 Zrotation Yrotation Xrotation
					JOINT RightToeBaseEnd
					{
						OFFSET 0.000000 0.000000 7.370709
						CHANNELS 3 Zrotation Yrotation Xrotation
						End Site
						{
							OFFSET 0.000000 0.000000 0.000000
						}
					}
				}
				JOINT RightLegEnd
				{
					OFFSET 0.000000 0.000000 0.000000
					CHANNELS 3 Zrotation Yrotation Xrotation
					End Site
					{
						OFFSET 0.000000 0.000000 0.000000
					}
				}
			}
			JOINT RightUpLegEnd
			{
				OFFSET 0.000000 0.000000 0.000000
				CHANNELS 3 Zrotation Yrotation Xrotation
				End Site
				{
					OFFSET 0.000000 0.000000 0.000000
				}
			}
		}
	}
	JOINT LeftUpLeg
	{
		OFFSET 11.315661 0.000000 0.000000
		CHANNELS 3 Zrotation Yrotation Xrotation
		JOINT LeftLeg
		{
			OFFSET 0.000000 -38.200325 -0.000000
			CHANNELS 3 Zrotation Yrotation Xrotation
			JOINT LeftFoot
			{
				OFFSET 0.000000 -39.900856 -0.000000
				CHANNELS 3 Zrotation Yrotation Xrotation
				JOINT LeftToeBase
				{
					OFFSET 0.000000 -0.000000 15.261641
					CHANNELS 3 Zrotation Yrotation Xrotation
					JOINT LeftToeBaseEnd
					{
						OFFSET -0.000000 0.000000 7.539996
						CHANNELS 3 Zrotation Yrotation Xrotation
						End Site
						{
							OFFSET 0.000000 0.000000 0.000000
						}
					}
				}
				JOINT LeftLegEnd
				{
					OFFSET 0.000000 0.000000 0.000000
					CHANNELS 3 Zrotation Yrotation Xrotation
					End Site
					{
						OFFSET 0.000000 0.000000 0.000000
					}
				}
			}
			JOINT LeftUpLegEnd
			{
				OFFSET 0.000000 0.000000 0.000000
				CHANNELS 3 Zrotation Yrotation Xrotation
				End Site
				{
					OFFSET 0.000000 0.000000 0.000000
				}
			}
		}
	}
}
MOTION
Frames: 4
Frame Time: 0.016667
-0.066283 88.859909 3.106752 -0.554998 -0.063200 -6.496325 0.035903 -0.002268 5.888138 1.007702 -0.066753 0.859935 -0.482675 2.416700 3.828048 -0.160674 0.780135 1.924824 -2.324279 -0.847468 5.016633 -0.365139 -2.116586 -3.221972 0.720381 0.853138 -18.220909 0.000000 0.000000 0.000000 92.020271 -0.208433 5.546823 69.638977 -19.089216 -1.147147 0.059477 8.331356 28.544134 2.918324 25.791067 -8.931848 11.217805 -1.887472 39.615406 0.000000 0.000000 -27.315002 0.000000 0.000000 -18.968748 0.000000 0.000000 0.000000 13.213602 16.646936 -12.039722 11.238620 -0.665555 -3.398387 11.238004 0.315584 -3.203499 0.000000 0.000000 0.000000 14.610597 6.862490 -11.429158 11.135071 -0.860474 -1.356066 11.133999 0.111766 -1.162957 0.000000 0.000000 0.000000 19.862411 -8.846701 -10.677217 12.650033 1.760184 1.978157 12.644374 -0.177743 1.540332 0.000000 0.000000 0.000000 23.790291 -25.600758 -10.773308 12.395708 3.368127 5.825091 12.374576 -0.538114 4.967071 0.000000 0.000000 0.000000 0.000000 0.000000 0.000000 0.000000 0.000000 0.000000 -90.685371 0.125338 9.277699 -68.205345 33.746468 -2.114506 -0.906679 -12.804414 36.500160 -5.004631 -13.813062 -13.796777 -10.637670 1.840801 39.870987 0.000000 0.000000 -25.919998 0.000000 0.000000 -18.000004 0.000000 0.000000 0.000000 -15.727524 16.759449 -9.934354 -8.634541 -0.781970 2.617436 -8.634687 0.185794 2.467350 0.000000 0.000000 0.000000 -12.632174 6.870213 -11.103483 -7.858750 -0.942948 0.960031 -7.861093 -0.138773 0.818618 0.000000 0.000000 0.000000 -9.446996 -8.823497 -11.456291 -7.804728 1.917102 -1.226388 -7.800338 -0.064224 -0.954850 0.000000 0.000000 0.000000 -4.422287 -25.333719 -13.915033 -6.810095 3.806906 -3.213968 -6.795249 -0.160380 -2.740026 0.000000 0.000000 0.000000 0.000000 0.000000 0.000000 0.000000 0.000000 0.000000 1.904249 6.541767 7.475135 -0.037531 -0.408927 7.546108 -4.730400 1.738853 18.019159 -0.347465 0.340706 -20.620296 0.000000 0.000000 0.000000 0.000000 0.000000 0.000000 0.000000 0.000000 0.000000 1.163178 10.511868 11.895180 0.051614 0.626121 3.761402 1.290193 7.867616 18.489267 0.739732 -0.851381 -19.069050 0.000000 0.000000 0.000000 0.000000 0.000000 0.000000 0.000000 0.000000 0.000000 
-0.127975 88.730690 3.142615 0.210423 0.177211 -8.221184 -1.398809 0.256491 7.042758 1.070821 -0.123477 1.975227 -0.769441 1.818996 3.371418 1.063039 0.231096 2.953888 -3.228525 -0.297278 3.851055 -0.294058 -1.412151 -3.358996 0.230051 0.553467 -18.207397 0.000000 0.000000 0.000000 90.520081 -0.201608 6.528409 69.589417 -19.404518 0.752481 0.122380 9.780528 27.327171 4.820894 23.227024 -7.667941 11.042599 -1.862038 39.724701 -0.000014 0.000015 -26.956228 -0.000007 0.000036 -18.685152 -0.000001 -0.000008 -0.000005 13.387532 16.980244 -10.278699 10.778511 -0.606390 -3.029224 10.826657 0.373356 -2.830861 -0.000024 0.000012 -0.000024 14.338093 7.049561 -10.687768 10.800215 -0.842964 -1.221784 10.832543 0.135014 -1.040533 0.000020 -0.000026 0.000010 19.450363 -9.114978 -10.709294 12.373079 1.756151 1.765086 12.325144 -0.198054 1.366463 -0.000030 -0.000287 0.000016 24.232563 -25.773031 -12.246596 12.425425 3.256878 5.278091 12.223319 -0.632602 4.501285 0.000281 -0.000006 0.000002 0.000000 0.000000 0.000000 0.000000 0.000000 0.000000 -90.808678 0.309323 9.060526 -67.039848 33.325680 -1.919851 -1.216461 -14.209618 36.423130 -5.082027 -12.699959 -13.633742 -10.563506 1.824021 39.912487 -0.000001 0.000013 -25.705280 -0.000034 -0.000028 -17.869083 -0.000160 -0.000003 0.000097 -15.632050 17.021908 -9.845875 -8.826139 -0.673699 2.821156 -9.047568 0.296288 2.662571 -0.000007 0.000612 -0.000000 -12.672874 7.059362 -10.474375 -8.445340 -0.881946 1.096931 -8.212037 0.100256 0.941543 0.000110 -0.000040 -0.000092 -9.184347 -9.030087 -10.284636 -8.155457 1.838942 -1.538917 -8.064445 -0.124221 -1.174876 0.000007 0.000007 0.000000 -4.037471 -25.707796 -12.681501 -6.948045 3.523062 -4.146387 -7.018237 -0.381030 -3.586309 -0.000113 -0.000015 -0.000030 0.000000 0.000000 0.000000 0.000000 0.000000 0.000000 1.072376 5.760263 8.001950 -0.080056 -0.419009 9.177484 -4.104875 0.826214 17.248358 -0.375186 0.456769 -20.961432 0.000000 0.000000 0.000000 0.000000 0.000000 0.000000 0.000000 0.000000 0.000000 0.922963 9.811073 12.486968 0.021612 0.657529 4.845586 1.204725 9.189953 17.663918 0.786202 -0.838066 -18.738623 0.000000 0.000000 0.000000 0.000000 0.000000 0.000000 0.000000 0.000000 0.000000 
-0.150098 88.725113 3.117386 0.181844 0.196126 -8.314170 -1.402147 0.244638 7.121443 1.100938 -0.127856 1.976769 -0.829419 1.780568 3.402900 1.117301 0.184732 2.918984 -3.176912 -0.258765 3.970269 -0.272514 -1.369193 -3.239238 0.188060 0.552609 -18.202425 0.000000 0.000000 0.000000 90.575813 -0.166825 6.496587 69.489426 -19.560972 0.964982 0.090565 9.677937 27.305788 4.806944 23.090023 -7.945008 11.002236 -1.860745 39.742203 -0.000009 0.000031 -26.851845 -0.000008 0.000033 -18.620800 0.000013 -0.000001 -0.000017 13.193053 16.965862 -10.219875 10.639416 -0.619290 -2.989409 10.688917 0.361273 -2.794026 -0.000002 0.000027 -0.000021 14.128939 7.044512 -10.642036 10.657578 -0.848018 -1.204426 10.682959 0.130369 -1.026196 0.000020 -0.000048 0.000001 19.236992 -9.103629 -10.740550 12.225194 1.764617 1.742328 12.165765 -0.190867 1.348274 -0.000036 -0.000238 -0.000000 24.070143 -25.740131 -12.351762 12.289940 3.282371 5.214055 12.086005 -0.612043 4.447142 0.000247 0.000007 -0.000006 0.000000 0.000000 0.000000 0.000000 0.000000 0.000000 -90.785294 0.257026 9.180028 -67.199409 33.211056 -1.847776 -1.218184 -14.163425 36.350437 -4.934041 -12.527118 -13.892160 -10.553247 1.817991 39.922462 0.000010 0.000019 -25.663931 -0.000031 -0.000012 -17.837584 -0.000281 0.000006 0.000185 -15.554266 17.030909 -9.954068 -8.794003 -0.680159 2.806354 -9.005079 0.290562 2.645865 0.000011 0.000577 0.000007 -12.587845 7.063505 -10.583031 -8.404498 -0.884823 1.087276 -8.177681 0.097875 0.934578 0.000088 -0.000031 -0.000114 -9.174749 -9.029993 -10.364747 -8.140404 1.843129 -1.528645 -8.051478 -0.121331 -1.167615 0.000145 0.000015 0.000004 -4.126760 -25.730492 -12.743604 -7.002167 3.534156 -4.116489 -7.069104 -0.371673 -3.563768 -0.000027 0.000007 -0.000049 0.000000 0.000000 0.000000 0.000000 0.000000 0.000000 1.148643 5.711595 8.034367 -0.077336 -0.408923 9.280478 -4.152121 0.816188 17.212599 -0.363339 0.461582 -20.921112 0.000000 0.000000 0.000000 0.000000 0.000000 0.000000 0.000000 0.000000 0.000000 0.953584 9.811158 12.572120 0.019248 0.649120 4.795002 1.203373 8.992973 17.675247 0.790882 -0.847555 -18.729914 0.000000 0.000000 0.000000 0.000000 0.000000 0.000000 0.000000 0.000000 0.000000 
-0.167062 88.725571 3.098254 0.172623 0.216036 -8.397754 -1.406440 0.243519 7.194531 1.125726 -0.128671 1.971467 -0.872094 1.766323 3.470980 1.159001 0.169284 2.849760 -3.185160 -0.172171 4.025433 -0.257193 -1.296870 -3.177066 0.149420 0.552273 -18.195971 0.000000 0.000000 0.000000 90.637299 -0.140700 6.502207 69.407936 -19.607189 1.104200 0.073188 9.671432 27.222485 4.779306 22.864641 -8.116465 10.974972 -1.860575 39.752499 -0.000006 0.000031 -26.773209 -0.000010 0.000035 -18.573526 0.000013 -0.000001 -0.000018 13.025306 16.957642 -10.200431 10.522319 -0.627955 -2.956459 10.568528 0.352999 -2.763578 -0.000001 0.000028 -0.000023 13.954845 7.039845 -10.621872 10.530002 -0.851486 -1.190552 10.558422 0.127270 -1.014353 0.000019 -0.000053 0.000004 19.070911 -9.094486 -10.762281 12.098147 1.769994 1.725802 12.035868 -0.186354 1.335079 -0.000035 -0.000138 0.000001 23.941605 -25.712107 -12.417489 12.178546 3.297697 5.174644 11.972292 -0.600111 4.413059 0.000239 0.000006 -0.000015 0.000000 0.000000 0.000000 0.000000 0.000000 0.000000 -90.774956 0.230429 9.261145 -67.381447 33.121235 -1.898379 -1.215694 -14.225731 36.426502 -4.862038 -12.340248 -13.898583 -10.557019 1.817249 39.921677 0.000009 0.000020 -25.659948 -0.000035 -0.000013 -17.837700 -0.000354 0.000005 0.000248 -15.527642 17.021446 -9.935596 -8.767553 -0.684509 2.795100 -8.973876 0.287284 2.630878 0.000008 0.000563 0.000008 -12.573367 7.061037 -10.590761 -8.375666 -0.886665 1.080112 -8.150087 0.096259 0.928975 0.000098 -0.000032 -0.000130 -9.219324 -9.024778 -10.383915 -8.139728 1.845353 -1.520317 -8.049463 -0.119617 -1.160949 0.000167 0.000015 0.000004 -4.244048 -25.729263 -12.771658 -7.047861 3.540541 -4.095043 -7.108170 -0.366364 -3.544664 0.000003 0.000006 -0.000050 0.000000 0.000000 0.000000 0.000000 0.000000 0.000000 1.183049 5.677290 8.060344 -0.074987 -0.399348 9.348357 -4.207547 0.843831 17.209557 -0.352698 0.459760 -20.903940 0.000000 0.000000 0.000000 0.000000 0.000000 0.000000 0.000000 0.000000 0.000000 0.979731 9.840837 12.625905 0.016723 0.639407 4.792137 1.205053 8.932974 17.700523 0.793836 -0.849823 -18.730474 0.000000 0.000000 0.000000 0.000000 0.000000 0.000000 0.000000 0.000000 0.000000 
